<?xml version="1.0" standalone="no"?>
<!DOCTYPE svg PUBLIC "-//W3C//DTD SVG 20010904//EN"
 "http://www.w3.org/TR/2001/REC-SVG-20010904/DTD/svg10.dtd">
<svg version="1.0" xmlns="http://www.w3.org/2000/svg"
 width="100.000000pt" height="100.000000pt" viewBox="0 0 100.000000 100.000000"
 preserveAspectRatio="xMidYMid meet">
<metadata>
Created by potrace 1.10, written by Peter Selinger 2001-2011
</metadata>
<g transform="translate(0.000000,100.000000) scale(0.100000,-0.100000)"
fill="#000000" stroke="none">
<path d="M395 866 c-66 -30 -136 -109 -158 -176 -21 -64 -22 -140 -2 -166 8
-10 15 -35 15 -55 0 -20 8 -47 18 -60 10 -13 31 -49 46 -81 16 -31 41 -71 58
-88 16 -18 28 -33 26 -34 -106 -47 -158 -81 -173 -112 -9 -20 -14 -42 -11 -50
10 -25 35 -15 51 21 12 30 26 41 92 71 43 20 79 39 80 42 4 11 101 6 116 -5 6
-6 41 -23 76 -38 47 -22 69 -38 88 -67 24 -40 45 -45 51 -15 7 36 -37 85 -104
117 -35 16 -69 30 -75 30 -6 0 3 16 20 35 17 20 45 64 62 98 17 34 38 69 46
79 8 9 16 35 18 58 1 22 11 50 20 60 14 16 17 31 12 79 -18 205 -206 335 -372
257z m195 -47 c79 -47 120 -111 139 -214 10 -54 9 -61 -9 -79 -13 -14 -20 -16
-20 -7 0 7 -9 25 -20 41 -18 26 -19 29 -3 41 11 10 17 10 20 3 2 -6 10 -20 18
-30 26 -34 -20 112 -48 155 -31 46 -97 81 -155 81 -35 0 -42 -3 -42 -20 0 -14
9 -21 38 -25 83 -13 113 -38 147 -118 l16 -38 -41 21 c-54 27 -139 38 -150 19
-14 -21 9 -39 49 -39 39 0 110 -29 127 -51 6 -8 16 -33 24 -56 11 -37 11 -45
-2 -60 -9 -10 -28 -46 -43 -80 -17 -39 -45 -78 -72 -104 -40 -37 -49 -41 -81
-36 -49 9 -94 55 -133 140 -18 40 -39 78 -46 85 -15 16 -17 38 -3 47 19 12 10
45 -15 55 -29 11 -30 25 -12 98 30 113 122 192 227 192 38 0 66 -6 90 -21z
m-26 -615 c3 -8 2 -12 -4 -9 -6 3 -10 10 -10 16 0 14 7 11 14 -7z m-124 2 c0
-3 -4 -8 -10 -11 -5 -3 -10 -1 -10 4 0 6 5 11 10 11 6 0 10 -2 10 -4z"/>
<path d="M383 615 c-18 -8 -33 -17 -33 -20 0 -3 5 -3 11 1 7 4 30 13 53 20 23
7 32 13 21 13 -11 0 -35 -6 -52 -14z"/>
<path d="M320 575 c-11 -13 -10 -14 4 -9 9 3 16 10 16 15 0 13 -6 11 -20 -6z"/>
<path d="M385 583 c-66 -16 -74 -93 -22 -206 42 -91 96 -142 141 -133 43 8 89
64 126 151 31 76 37 119 20 145 -7 11 -10 -1 -10 -41 0 -44 -7 -70 -32 -119
-82 -158 -148 -159 -227 -5 -42 82 -49 133 -23 165 19 24 25 25 136 25 115 0
145 7 85 19 -36 7 -164 6 -194 -1z"/>
<path d="M449 334 c-16 -31 2 -54 45 -54 41 0 66 34 42 59 -26 25 -72 22 -87
-5z m80 -8 c9 -11 8 -15 -5 -20 -25 -10 -62 -7 -70 5 -16 26 55 40 75 15z"/>
<path d="M443 148 c15 -10 78 -10 94 0 6 4 -15 7 -48 7 -32 1 -53 -3 -46 -7z"/>
<path d="M388 63 c56 -2 148 -2 205 0 56 1 10 3 -103 3 -113 0 -159 -2 -102
-3z"/>
</g>
</svg>
