<?xml version="1.0" standalone="no"?>
<!DOCTYPE svg PUBLIC "-//W3C//DTD SVG 20010904//EN"
 "http://www.w3.org/TR/2001/REC-SVG-20010904/DTD/svg10.dtd">
<svg version="1.0" xmlns="http://www.w3.org/2000/svg"
 width="100.000000pt" height="100.000000pt" viewBox="0 0 100.000000 100.000000"
 preserveAspectRatio="xMidYMid meet">
<metadata>
Created by potrace 1.10, written by Peter Selinger 2001-2011
</metadata>
<g transform="translate(0.000000,100.000000) scale(0.100000,-0.100000)"
fill="#000000" stroke="none">
<path d="M805 895 c-112 -13 -126 -19 -174 -68 -19 -21 -39 -33 -48 -30 -9 3
-62 -42 -144 -123 -112 -112 -133 -128 -158 -126 -26 3 -40 -10 -130 -117 -66
-78 -101 -128 -101 -143 0 -17 30 -54 104 -126 57 -56 110 -102 119 -102 10 0
72 46 139 103 110 92 123 106 123 135 0 27 17 49 123 154 71 72 122 131 122
142 0 11 32 52 70 92 70 72 100 122 100 168 0 23 -24 57 -38 55 -4 -1 -52 -7
-107 -14z m107 -72 c-8 -25 -36 -62 -84 -111 l-74 -72 -64 65 -65 65 41 40
c38 39 43 41 139 53 55 8 104 10 109 6 6 -5 5 -23 -2 -46z m-245 -135 c46 -46
83 -87 83 -93 0 -6 -55 -65 -123 -133 l-122 -122 -90 90 -90 90 125 125 c69
69 127 125 130 125 2 0 42 -37 87 -82z m-267 -283 c72 -72 111 -118 105 -124
-6 -5 -59 -50 -120 -100 l-109 -91 -98 97 c-54 54 -96 104 -93 110 2 7 33 47
67 88 l63 75 70 -70 c64 -63 95 -84 95 -62 0 4 -34 41 -75 82 -70 70 -74 75
-58 92 9 10 21 18 27 18 6 0 63 -52 126 -115z"/>
<path d="M557 703 c-9 -9 22 -43 40 -43 18 0 16 14 -5 33 -21 19 -26 20 -35
10z"/>
<path d="M505 650 c-7 -11 21 -50 37 -50 15 0 8 27 -11 44 -13 12 -21 14 -26
6z"/>
<path d="M447 593 c-9 -9 22 -43 40 -43 18 0 16 14 -5 33 -21 19 -26 20 -35
10z"/>
<path d="M395 540 c-7 -11 21 -50 37 -50 15 0 8 27 -11 44 -13 12 -21 14 -26
6z"/>
<path d="M390 292 c0 -14 39 -46 47 -38 4 4 2 15 -3 24 -12 19 -44 29 -44 14z"/>
</g>
</svg>
