<?xml version="1.0" standalone="no"?>
<!DOCTYPE svg PUBLIC "-//W3C//DTD SVG 20010904//EN"
 "http://www.w3.org/TR/2001/REC-SVG-20010904/DTD/svg10.dtd">
<svg version="1.0" xmlns="http://www.w3.org/2000/svg"
 width="100.000000pt" height="100.000000pt" viewBox="0 0 100.000000 100.000000"
 preserveAspectRatio="xMidYMid meet">
<metadata>
Created by potrace 1.10, written by Peter Selinger 2001-2011
</metadata>
<g transform="translate(0.000000,100.000000) scale(0.100000,-0.100000)"
fill="#000000" stroke="none">
<path d="M266 892 c-15 -17 -16 -56 -14 -398 3 -353 4 -379 21 -382 10 -2 62
29 122 73 l105 76 105 -76 c60 -44 112 -75 122 -73 17 3 18 29 21 382 2 342 1
381 -14 398 -16 16 -36 18 -234 18 -198 0 -218 -2 -234 -18z m452 -388 l2
-367 -32 25 c-18 13 -64 48 -102 76 -38 29 -76 52 -85 52 -9 0 -61 -34 -116
-74 l-100 -74 -3 357 c-1 196 -1 360 2 366 2 6 82 9 217 8 l214 -2 3 -367z"/>
<path d="M337 844 c-4 -4 -7 -20 -7 -36 0 -35 23 -34 28 1 4 25 -10 46 -21 35z"/>
<path d="M644 836 c-8 -21 -1 -49 14 -54 8 -2 12 7 12 27 0 33 -17 51 -26 27z"/>
<path d="M410 809 c0 -38 24 -35 28 4 2 19 -1 27 -12 27 -11 0 -16 -10 -16
-31z"/>
<path d="M484 826 c-8 -22 3 -49 19 -43 6 2 12 14 12 27 0 27 -22 39 -31 16z"/>
<path d="M562 813 c4 -39 28 -42 28 -4 0 21 -5 31 -16 31 -11 0 -14 -8 -12
-27z"/>
</g>
</svg>
