<?xml version="1.0" standalone="no"?>
<!DOCTYPE svg PUBLIC "-//W3C//DTD SVG 20010904//EN"
 "http://www.w3.org/TR/2001/REC-SVG-20010904/DTD/svg10.dtd">
<svg version="1.0" xmlns="http://www.w3.org/2000/svg"
 width="100.000000pt" height="100.000000pt" viewBox="0 0 100.000000 100.000000"
 preserveAspectRatio="xMidYMid meet">
<metadata>
Created by potrace 1.10, written by Peter Selinger 2001-2011
</metadata>
<g transform="translate(0.000000,100.000000) scale(0.100000,-0.100000)"
fill="#000000" stroke="none">
<path d="M408 929 c-15 -8 -18 -25 -18 -94 0 -84 0 -85 25 -85 16 0 25 -6 25
-15 0 -13 -25 -15 -169 -15 l-170 0 -20 -26 c-20 -26 -21 -39 -21 -306 l0
-279 25 -24 24 -25 391 0 391 0 24 25 25 24 0 279 c0 267 -1 280 -21 306 l-20
26 -170 0 c-144 0 -169 2 -169 15 0 9 9 15 25 15 25 0 25 1 25 85 0 73 -3 86
-19 95 -25 13 -161 13 -183 -1z m172 -84 l0 -65 -80 0 -80 0 0 65 0 65 80 0
80 0 0 -65z m-50 -110 c0 -10 -10 -15 -30 -15 -20 0 -30 5 -30 15 0 10 10 15
30 15 20 0 30 -5 30 -15z m-54 -110 c-10 -99 -6 -95 -107 -95 l-89 0 0 -40 0
-40 -95 0 -95 0 0 108 c0 71 4 112 12 120 8 8 66 12 196 12 l185 0 -7 -65z
m422 53 c8 -8 12 -49 12 -120 l0 -108 -51 0 c-66 0 -62 -24 4 -28 l47 -3 0
-154 c0 -142 -2 -155 -19 -165 -30 -15 -773 -14 -789 2 -8 8 -12 59 -12 165
l0 153 95 0 95 0 0 -65 c0 -48 4 -66 16 -73 13 -7 9 -13 -20 -36 -36 -27 -45
-49 -26 -61 11 -7 120 71 120 86 0 5 78 10 173 11 l172 3 3 68 c3 67 3 67 32
67 20 0 30 5 30 15 0 10 -10 15 -30 15 -28 0 -30 2 -30 40 l0 40 -106 0 -106
0 6 31 c3 17 6 53 6 80 l0 49 183 0 c129 0 187 -4 195 -12z m-208 -273 l0 -95
-190 0 -190 0 0 95 0 95 190 0 190 0 0 -95z"/>
<path d="M482 868 c-16 -16 -15 -33 4 -48 22 -19 54 12 38 37 -14 22 -27 26
-42 11z"/>
<path d="M334 397 c-7 -20 -2 -47 11 -50 14 -3 19 43 6 56 -7 7 -12 6 -17 -6z"/>
<path d="M410 375 c0 -25 4 -35 13 -32 6 2 12 16 12 32 0 16 -6 30 -12 33 -9
2 -13 -8 -13 -33z"/>
<path d="M484 396 c-9 -23 0 -51 16 -51 10 0 15 10 15 29 0 32 -21 47 -31 22z"/>
<path d="M564 396 c-8 -21 -1 -49 14 -54 8 -2 12 8 12 32 0 36 -16 49 -26 22z"/>
<path d="M644 397 c-7 -20 -2 -47 11 -50 14 -3 19 43 6 56 -7 7 -12 6 -17 -6z"/>
</g>
</svg>
