<?xml version="1.0" standalone="no"?>
<!DOCTYPE svg PUBLIC "-//W3C//DTD SVG 20010904//EN"
 "http://www.w3.org/TR/2001/REC-SVG-20010904/DTD/svg10.dtd">
<svg version="1.0" xmlns="http://www.w3.org/2000/svg"
 width="100.000000pt" height="100.000000pt" viewBox="0 0 100.000000 100.000000"
 preserveAspectRatio="xMidYMid meet">
<metadata>
Created by potrace 1.10, written by Peter Selinger 2001-2011
</metadata>
<g transform="translate(0.000000,100.000000) scale(0.100000,-0.100000)"
fill="#000000" stroke="none">
<path d="M462 988 c-36 -10 -72 -58 -72 -96 0 -13 7 -36 15 -52 l15 -29 -76
-3 -77 -3 -1 -39 c-1 -29 3 -40 17 -44 16 -4 17 -27 17 -303 0 -249 -2 -299
-14 -299 -13 0 -28 -75 -17 -86 6 -5 456 -5 462 0 11 11 -4 86 -17 86 -12 0
-14 50 -14 299 0 276 1 299 18 303 13 4 17 15 16 44 l-1 39 -77 3 -76 3 15 29
c19 37 19 63 0 100 -24 46 -75 65 -133 48z m72 -29 c13 -7 30 -25 37 -42 15
-36 -1 -73 -44 -97 -24 -13 -30 -13 -54 0 -43 24 -59 61 -44 97 19 46 60 62
105 42z m173 -194 c0 -13 -30 -15 -207 -15 -177 0 -207 2 -207 15 0 13 30 15
207 15 177 0 207 -2 207 -15z m-197 -48 c0 -1 -40 -43 -90 -92 l-90 -90 0 93
0 92 90 0 c50 0 90 -1 90 -3z m160 -10 c0 -8 -335 -357 -344 -357 -1 0 0 33 2
72 l3 73 112 113 112 112 57 0 c40 0 58 -4 58 -13z m3 -234 l-3 -178 -87 -87
-88 -88 -82 0 c-95 0 -86 -13 -83 116 l1 70 167 171 c92 94 169 171 172 172 3
0 4 -79 3 -176z m-1 -283 l-4 -70 -64 0 c-35 0 -64 2 -64 3 0 5 124 134 130
136 3 0 4 -30 2 -69z m28 -112 c0 -17 -16 -18 -200 -18 -184 0 -200 1 -200 18
0 16 16 17 200 17 184 0 200 -1 200 -17z"/>
<path d="M616 461 c-3 -5 3 -20 13 -32 26 -32 48 -14 25 19 -16 23 -29 28 -38
13z"/>
<path d="M560 397 c0 -8 9 -22 19 -31 26 -23 39 -2 15 25 -20 22 -34 25 -34 6z"/>
<path d="M500 342 c0 -16 39 -44 50 -37 8 5 6 13 -6 26 -17 19 -44 26 -44 11z"/>
<path d="M444 289 c-3 -6 3 -21 15 -32 16 -16 23 -19 33 -9 9 9 7 16 -7 32
-20 23 -31 25 -41 9z"/>
<path d="M390 227 c0 -8 9 -22 19 -31 26 -23 39 -2 15 25 -20 22 -34 25 -34 6z"/>
<path d="M336 171 c-8 -12 31 -44 44 -36 8 5 6 13 -6 26 -19 21 -30 24 -38 10z"/>
</g>
</svg>
